<?xml version="1.0" encoding="UTF-8"?>
<svg version="1.1" xmlns="http://www.w3.org/2000/svg" width="64" height="64">
<path d="M0 0 C6.47496935 5.28699977 10.89385341 12.01682002 12.48828125 20.3046875 C13.21149834 28.28378753 12.74786302 36.29741254 8.48828125 43.3046875 C6.34765625 44.10546875 6.34765625 44.10546875 4.48828125 44.3046875 C3.27033757 40.65085645 3.82359286 40.10300691 5.42578125 36.7421875 C8.45433209 29.47155499 8.51382283 23.45187841 5.80078125 16.0546875 C2.22363992 8.11790517 -2.67218164 3.82476588 -10.51171875 0.3046875 C-18.02514155 -2.02757341 -25.17685988 -1.07422776 -32.2578125 2.1171875 C-39.36100131 5.85959547 -43.75996924 11.66139319 -46.12890625 19.29296875 C-47.52836213 26.64725219 -46.4899185 32.46152775 -43.2890625 39.17578125 C-42.51171875 41.3046875 -42.51171875 41.3046875 -43.51171875 44.3046875 C-45.37109375 44.10546875 -45.37109375 44.10546875 -47.51171875 43.3046875 C-52.25788299 35.49695435 -52.77971087 26.16122608 -50.88671875 17.41796875 C-48.40541252 9.47557338 -44.01507228 3.13111659 -36.91015625 -1.328125 C-24.79816847 -7.58062607 -11.58037235 -7.81630109 0 0 Z " fill="#FFFFFF" transform="translate(51.51171875,5.6953125)"/>
<path d="M0 0 C2.89115135 1.85057336 5.38730706 3.89387238 7.91015625 6.22265625 C7.53611111 8.73410221 7.24239023 9.92931796 5.30859375 11.63671875 C-3.67942732 17.01565028 -12.78031614 19.04300074 -23.1328125 16.46484375 C-28.10646304 14.75997568 -32.25044993 12.92965718 -36.08984375 9.22265625 C-35.70696933 6.65906228 -35.31274155 5.44502207 -33.453125 3.58984375 C-32.43798828 2.85121094 -32.43798828 2.85121094 -31.40234375 2.09765625 C-30.73847656 1.60007812 -30.07460938 1.1025 -29.390625 0.58984375 C-20.68092093 -4.58570196 -8.9361257 -4.66014779 0 0 Z M-30.08984375 6.22265625 C-29.421918 9.30732829 -29.421918 9.30732829 -27.15625 10.390625 C-18.69082249 13.83754634 -12.07399795 14.61781565 -3.46484375 11.22265625 C-1.99881286 10.57309179 -0.53734388 9.91252865 0.91015625 9.22265625 C0.91015625 7.90265625 0.91015625 6.58265625 0.91015625 5.22265625 C-9.95264095 -0.92195631 -19.57772872 -0.28927342 -30.08984375 6.22265625 Z " fill="#FFFFFF" transform="translate(46.08984375,46.77734375)"/>
<path d="M0 0 C3.9933504 3.42287177 4.51875926 4.91136663 4.9375 10.1875 C4.82507433 13.96781322 4.08919347 16.2759734 1.625 19.25 C-1.83545307 22.11723254 -4.87717821 22.78417629 -9.37890625 22.60546875 C-13.42593604 21.88476481 -16.25597573 19.67421271 -18.75 16.5 C-20.19899408 11.28362133 -20.07553657 7.60103481 -17.625 2.875 C-12.72832137 -2.83779173 -6.58393652 -3.41389301 0 0 Z M-13.375 4.25 C-15.29699114 6.81265486 -15.38528636 8.08198949 -15.1875 11.3125 C-14.33929365 14.37909218 -14.00683484 15.52569441 -11.375 17.25 C-8.27529156 18.10736616 -6.22194533 18.50878885 -3.125 17.5625 C-0.92842962 15.91507222 -0.18029388 14.88550724 0.625 12.25 C0.43645593 9.17044678 0.13832877 7.03350181 -1.5625 4.4375 C-5.46278769 1.8821391 -9.57964438 1.40348329 -13.375 4.25 Z " fill="#FFFFFF" transform="translate(39.375,16.75)"/>
</svg>
