<svg width="38" height="45" viewBox="0 0 38 45" fill="none" xmlns="http://www.w3.org/2000/svg">
<path fill-rule="evenodd" clip-rule="evenodd" d="M0.81035 10.4298L15.0378 16.4741C15.4836 16.6633 15.8483 17.1838 15.8483 17.6303V44.0928C15.8483 44.5394 15.4835 44.7498 15.0378 44.5604L0.81035 38.5162C0.364716 38.3269 0 37.8066 0 37.36V10.8975C0 10.4509 0.364716 10.2405 0.81035 10.4298Z" fill="#FF720D"/>
<path fill-rule="evenodd" clip-rule="evenodd" d="M22.9621 0.699597L37.1896 6.74383C37.6354 6.9332 38 7.45356 38 7.90006V34.3626C38 34.8091 37.6352 35.0196 37.1896 34.8302L22.9621 28.7861C22.5163 28.5967 22.1516 28.0763 22.1516 27.6298V1.16729C22.1516 0.720747 22.5163 0.510334 22.9621 0.699597Z" fill="#00502A"/>
<path fill-rule="evenodd" clip-rule="evenodd" d="M0 24.1288L22.1516 14.3986L38 21.1313L15.8483 30.8616L0 24.1288Z" fill="black" fill-opacity="0.4"/>
<path fill-rule="evenodd" clip-rule="evenodd" d="M15.8483 17.6303V30.8616L22.2469 28.051C22.1861 27.9114 22.1516 27.7671 22.1516 27.6298V14.3986L15.7531 17.2092C15.8138 17.3486 15.8483 17.4929 15.8483 17.6303Z" fill="black"/>
</svg>
