<svg width="69" height="79" viewBox="0 0 69 79" fill="none" xmlns="http://www.w3.org/2000/svg">
<path fill-rule="evenodd" clip-rule="evenodd" d="M1.47143 18.2196L27.3056 28.8836C28.115 29.2175 28.7773 30.1357 28.7773 30.9235V77.6118C28.7773 78.3997 28.1148 78.7709 27.3056 78.4369L1.47143 67.7728C0.662247 67.4389 0 66.5209 0 65.7331V19.0448C0 18.2567 0.662247 17.8855 1.47143 18.2196Z" fill="#FF720D"/>
<path fill-rule="evenodd" clip-rule="evenodd" d="M41.6944 1.05237L67.5286 11.7163C68.338 12.0504 69.0001 12.9685 69.0001 13.7563V60.4446C69.0001 61.2324 68.3377 61.6037 67.5286 61.2696L41.6944 50.6058C40.885 50.2717 40.2227 49.3537 40.2227 48.5658V1.87753C40.2227 1.08969 40.885 0.718452 41.6944 1.05237Z" fill="#00502A"/>
<path fill-rule="evenodd" clip-rule="evenodd" d="M0 42.3889L40.2227 25.2217L69 37.1005L28.7773 54.2677L0 42.3889Z" fill="black" fill-opacity="0.4"/>
<path fill-rule="evenodd" clip-rule="evenodd" d="M28.7773 30.9235V54.2677L40.3957 49.3089C40.2854 49.0626 40.2227 48.8081 40.2227 48.5658V25.2217L28.6042 30.1805C28.7146 30.4265 28.7773 30.6811 28.7773 30.9235Z" fill="black"/>
</svg>
