<?xml version="1.0" encoding="UTF-8"?>
<!DOCTYPE svg PUBLIC "-//W3C//DTD SVG 1.1//EN" "http://www.w3.org/Graphics/SVG/1.1/DTD/svg11.dtd">
<svg xmlns="http://www.w3.org/2000/svg" version="1.1" width="50px" height="50px" style="shape-rendering:geometricPrecision; text-rendering:geometricPrecision; image-rendering:optimizeQuality; fill-rule:evenodd; clip-rule:evenodd" xmlns:xlink="http://www.w3.org/1999/xlink">
<g><path style="opacity:0.858" fill="#fefffe" d="M 17.5,1.5 C 32.9539,-1.12196 42.9539,4.87804 47.5,19.5C 49.9444,31.6705 45.611,40.5038 34.5,46C 15.5396,50.8615 4.53961,43.6948 1.5,24.5C 1.51888,19.5873 2.85222,15.0873 5.5,11C 9.5896,10.7443 11.9229,8.5776 12.5,4.5C 14.3964,3.72549 16.063,2.72549 17.5,1.5 Z M 16.5,5.5 C 29.4484,10.0626 33.9484,19.0626 30,32.5C 27.5911,37.9092 23.5911,41.5759 18,43.5C 9.58135,40.0099 5.08135,33.6766 4.5,24.5C 4.69119,20.9262 5.69119,17.5929 7.5,14.5C 8.72865,13.7189 10.062,13.2189 11.5,13C 13.2645,10.4828 14.9312,7.98276 16.5,5.5 Z"/></g>
<g><path style="opacity:0.607" fill="#fefffe" d="M 17.5,13.5 C 19.1667,13.5 20.8333,13.5 22.5,13.5C 22.5,14.5 22.5,15.5 22.5,16.5C 18.5,16.8333 18.5,17.1667 22.5,17.5C 22.5,18.5 22.5,19.5 22.5,20.5C 16.7527,21.1285 15.086,18.7952 17.5,13.5 Z"/></g>
<g><path style="opacity:0.574" fill="#fefffe" d="M 13.5,27.5 C 15.8333,27.5 18.1667,27.5 20.5,27.5C 20.5,28.5 20.5,29.5 20.5,30.5C 18.2495,30.1814 16.2495,30.6814 14.5,32C 15.9552,34.0162 17.9552,34.8495 20.5,34.5C 20.5,35.5 20.5,36.5 20.5,37.5C 12.2269,38.2827 9.89352,34.9494 13.5,27.5 Z"/></g>
</svg>
