<?xml version="1.0" encoding="UTF-8"?>
<svg version="1.1" xmlns="http://www.w3.org/2000/svg" width="48" height="48">
<path d="M0 0 C0.99 0 1.98 0 3 0 C3.03738281 0.80824219 3.07476563 1.61648437 3.11328125 2.44921875 C3.17902344 3.51785156 3.24476562 4.58648437 3.3125 5.6875 C3.37050781 6.74324219 3.42851562 7.79898437 3.48828125 8.88671875 C4.03993133 12.24294101 5.15872785 14.18132333 7 17 C7 17.66 7 18.32 7 19 C12.71561183 21.95635095 17.60314117 22.73884692 24 22 C26.60017828 20.92068071 28.6283599 19.56528246 31 18 C33.4375 17.25 33.4375 17.25 35 17 C35 19.73676628 34.53463493 21.42992818 32.64453125 23.4453125 C27.29284505 27.43910817 21.96061441 27.79932435 15.41796875 27.546875 C8.61051627 26.4576826 4.75656323 23.09930728 0.4375 17.9375 C-2.11092576 12.80589721 -1.49158168 6.56051411 -1 1 C-0.67 0.67 -0.34 0.34 0 0 Z " fill="#FFFFFF" transform="translate(5,17)"/>
<path d="M0 0 C4.65394917 2.87404477 8.81753762 6.4392254 10.234375 11.89453125 C10.53534831 16.25099243 10.4703058 20.53636506 10.234375 24.89453125 C8.914375 24.56453125 7.594375 24.23453125 6.234375 23.89453125 C6.11320312 23.0025 5.99203125 22.11046875 5.8671875 21.19140625 C5.69960938 20.0209375 5.53203125 18.85046875 5.359375 17.64453125 C5.19695313 16.484375 5.03453125 15.32421875 4.8671875 14.12890625 C4.31207502 11.29166466 3.77275131 9.31361371 2.234375 6.89453125 C-3.10558 3.6216556 -8.64756632 3.17039077 -14.765625 3.89453125 C-17.29211191 5.01012287 -19.42106086 6.41123557 -21.765625 7.89453125 C-22.755625 7.56453125 -23.745625 7.23453125 -24.765625 6.89453125 C-24.703125 5.14453125 -24.703125 5.14453125 -23.765625 2.89453125 C-17.22641531 -2.58015593 -7.85069824 -3.13806159 0 0 Z " fill="#FFFFFF" transform="translate(33.765625,5.10546875)"/>
<path d="M0 0 C0.70125 0.00515625 1.4025 0.0103125 2.125 0.015625 C2.82625 0.01046875 3.5275 0.0053125 4.25 0 C6.125 0.265625 6.125 0.265625 8.125 2.265625 C8.70216437 9.53789602 8.70216437 9.53789602 6.6875 12.078125 C6.171875 12.47 5.65625 12.861875 5.125 13.265625 C4.795 14.255625 4.465 15.245625 4.125 16.265625 C2.805 16.265625 1.485 16.265625 0.125 16.265625 C0.875 10.515625 0.875 10.515625 3.125 8.265625 C3.7675235 6.19688466 3.7675235 6.19688466 4.125 4.265625 C2.805 4.265625 1.485 4.265625 0.125 4.265625 C-0.205 5.585625 -0.535 6.905625 -0.875 8.265625 C-1.865 8.265625 -2.855 8.265625 -3.875 8.265625 C-4 5.390625 -4 5.390625 -3.875 2.265625 C-1.875 0.265625 -1.875 0.265625 0 0 Z " fill="#FFFFFF" transform="translate(21.875,12.734375)"/>
<path d="M0 0 C1.32 0 2.64 0 4 0 C4 1.32 4 2.64 4 4 C2.68 4 1.36 4 0 4 C0 2.68 0 1.36 0 0 Z " fill="#FFFFFF" transform="translate(22,32)"/>
</svg>
