<?xml version="1.0" encoding="UTF-8"?>
<!DOCTYPE svg PUBLIC "-//W3C//DTD SVG 1.1//EN" "http://www.w3.org/Graphics/SVG/1.1/DTD/svg11.dtd">
<svg xmlns="http://www.w3.org/2000/svg" version="1.1" width="46px" height="50px" style="shape-rendering:geometricPrecision; text-rendering:geometricPrecision; image-rendering:optimizeQuality; fill-rule:evenodd; clip-rule:evenodd" xmlns:xlink="http://www.w3.org/1999/xlink">
<g><path style="opacity:1" fill="#51af85" d="M 3.5,-0.5 C 16.5,-0.5 29.5,-0.5 42.5,-0.5C 42.9867,0.473444 43.4867,1.47344 44,2.5C 44.7352,18.1847 44.5686,33.8513 43.5,49.5C 40.1667,49.5 36.8333,49.5 33.5,49.5C 33.5,48.1667 33.5,46.8333 33.5,45.5C 26.1667,45.5 18.8333,45.5 11.5,45.5C 11.5,46.8333 11.5,48.1667 11.5,49.5C 8.16667,49.5 4.83333,49.5 1.5,49.5C 0.431449,33.8513 0.264782,18.1847 1,2.5C 1.69794,1.30943 2.53128,0.309426 3.5,-0.5 Z M 12.5,3.5 C 19.5079,3.33371 26.5079,3.50038 33.5,4C 34.8333,5 34.8333,6 33.5,7C 26.5,7.66667 19.5,7.66667 12.5,7C 11.3157,5.85453 11.3157,4.68787 12.5,3.5 Z M 8.5,10.5 C 18.2199,10.1924 27.8865,10.5257 37.5,11.5C 39.0419,13.879 39.7086,16.5457 39.5,19.5C 39.4407,21.8912 39.1074,24.2246 38.5,26.5C 28.1614,28.1267 17.8281,28.4601 7.5,27.5C 5.95807,25.121 5.2914,22.4543 5.5,19.5C 5.0233,15.8602 6.0233,12.8602 8.5,10.5 Z M 6.5,34.5 C 8.16667,34.5 9.83333,34.5 11.5,34.5C 11.5,36.1667 11.5,37.8333 11.5,39.5C 9.83333,39.5 8.16667,39.5 6.5,39.5C 6.5,37.8333 6.5,36.1667 6.5,34.5 Z M 33.5,34.5 C 35.1667,34.5 36.8333,34.5 38.5,34.5C 38.5,36.1667 38.5,37.8333 38.5,39.5C 36.8333,39.5 35.1667,39.5 33.5,39.5C 33.5,37.8333 33.5,36.1667 33.5,34.5 Z"/></g>
</svg>
