<?xml version="1.0" encoding="UTF-8"?>
<!DOCTYPE svg PUBLIC "-//W3C//DTD SVG 1.1//EN" "http://www.w3.org/Graphics/SVG/1.1/DTD/svg11.dtd">
<svg xmlns="http://www.w3.org/2000/svg" version="1.1" width="50px" height="50px" style="shape-rendering:geometricPrecision; text-rendering:geometricPrecision; image-rendering:optimizeQuality; fill-rule:evenodd; clip-rule:evenodd" xmlns:xlink="http://www.w3.org/1999/xlink">
<g><path style="opacity:0.933" fill="#46aa7e" d="M 14.5,7.5 C 21.175,7.33375 27.8417,7.50042 34.5,8C 36.0806,8.70653 37.5806,9.53986 39,10.5C 40.3333,13.8333 41.6667,17.1667 43,20.5C 47.4422,17.4049 49.2755,18.7383 48.5,24.5C 47.1779,24.67 46.0113,24.3366 45,23.5C 44.5005,29.4908 44.3338,35.4908 44.5,41.5C 41.1667,41.5 37.8333,41.5 34.5,41.5C 34.5,40.1667 34.5,38.8333 34.5,37.5C 27.8333,37.5 21.1667,37.5 14.5,37.5C 14.5,38.8333 14.5,40.1667 14.5,41.5C 11.1667,41.5 7.83333,41.5 4.5,41.5C 4.66615,35.4908 4.49949,29.4908 4,23.5C 2.98873,24.3366 1.82207,24.67 0.5,24.5C -0.275501,18.7383 1.55783,17.4049 6,20.5C 7.33333,17.1667 8.66667,13.8333 10,10.5C 11.6516,9.60064 13.1516,8.60064 14.5,7.5 Z M 23.5,9.5 C 32.344,8.24392 37.6773,11.9106 39.5,20.5C 38.624,21.2508 37.624,21.7508 36.5,22C 28.5,22.6667 20.5,22.6667 12.5,22C 11.376,21.7508 10.376,21.2508 9.5,20.5C 10.4318,17.4701 11.7651,14.6368 13.5,12C 16.9089,11.0042 20.2423,10.1708 23.5,9.5 Z M 10.5,26.5 C 14.5601,25.8482 16.5601,27.5149 16.5,31.5C 11.7587,32.4065 9.75871,30.7398 10.5,26.5 Z M 34.5,26.5 C 39.2442,26.0384 40.2442,27.5384 37.5,31C 35.8659,31.4935 34.1992,31.6602 32.5,31.5C 32.3653,29.4458 33.032,27.7791 34.5,26.5 Z"/></g>
</svg>
